<svg width="81" height="63" viewBox="0 0 81 63" fill="none" xmlns="http://www.w3.org/2000/svg">
<path d="M6.99426 45.9381V60.3746H63.3277V49.7042L36.8086 21.459" stroke="#665C40" stroke-width="5"/>
<path d="M3.22821 48.292L22.3722 29.3049" stroke="#665C40" stroke-width="5"/>
<path d="M63.1708 49.3903C65.9953 49.5473 70.8598 48.5116 67.7214 43.1136L41.2023 17.0653" stroke="#665C40" stroke-width="5"/>
<path d="M41.673 15.0254L33.9841 22.5574C28.7116 20.4233 28.9627 24.5973 29.7473 26.9511C26.9855 30.4661 25.249 30.4033 24.7259 29.9325C22.9475 28.3634 19.2966 25.0681 18.92 24.4404C18.5434 23.8128 18.7631 22.9236 18.92 22.5574L21.7445 18.6345C26.7659 20.392 26.9751 16.4376 26.452 14.2408L34.9256 5.92415C41.9555 0.275113 51.0358 4.09344 54.6972 6.70874L53.4419 8.27791L52.0296 7.65024C40.9826 4.76296 40.5223 11.364 41.673 15.0254Z" fill="#CBC8C2" stroke="#665C40" stroke-width="5"/>
<path d="M22.9998 28.6772L21.7445 29.9326" stroke="#665C40" stroke-width="5"/>
<path d="M10.1326 29.7756V40.2891L16.5662 34.797V29.7756H10.1326Z" fill="#665C40" stroke="#665C40" stroke-width="5"/>
<path d="M6.99426 46.095V45.1535V44.212" stroke="#665C40" stroke-width="5"/>
<path d="M3.54204 47.978C2.75745 48.7626 1.40796 50.1121 2.28669 49.2334" stroke="#665C40" stroke-width="5"/>
<circle cx="34.6117" cy="15.4961" r="1.72609" fill="#665C40"/>
<rect x="28.8058" y="45.1536" width="4.70753" height="4.70753" rx="2.35376" fill="#665C40"/>
<rect x="34.4548" y="45.1536" width="4.70753" height="4.70753" rx="2.35376" fill="#665C40"/>
<rect x="28.8058" y="39.1907" width="4.70753" height="4.70753" rx="2.35376" fill="#665C40"/>
<rect x="34.4548" y="39.1907" width="4.70753" height="4.70753" rx="2.35376" fill="#665C40"/>
</svg>
