<svg width="160" height="160" viewBox="0 0 160 160" fill="none" xmlns="http://www.w3.org/2000/svg">
<path fill-rule="evenodd" clip-rule="evenodd" d="M155 100C155 105.523 150.523 110 145 110L15 110C9.47714 110 5 105.523 5 100V30C5 24.4771 9.47714 20 15 20L145 20C150.523 20 155 24.4771 155 30V100ZM15 100L145 100V30L15 30V100Z" fill="#CBC7B8"/>
<path fill-rule="evenodd" clip-rule="evenodd" d="M15 120C15 117.239 17.2386 115 20 115H140C142.761 115 145 117.239 145 120C145 122.761 142.761 125 140 125H20C17.2386 125 15 122.761 15 120Z" fill="#CBC7B8"/>
<path fill-rule="evenodd" clip-rule="evenodd" d="M25 135C25 132.239 27.2386 130 30 130H130C132.761 130 135 132.239 135 135C135 137.761 132.761 140 130 140H30C27.2386 140 25 137.761 25 135Z" fill="#CBC7B8"/>
<path fill-rule="evenodd" clip-rule="evenodd" d="M80 45C68.9543 45 60 53.9543 60 65C60 76.0457 68.9543 85 80 85C91.0457 85 100 76.0457 100 65C100 53.9543 91.0457 45 80 45ZM50 65C50 48.4315 63.4315 35 80 35C96.5685 35 110 48.4315 110 65C110 81.5685 96.5685 95 80 95C63.4315 95 50 81.5685 50 65Z" fill="#CBC7B8"/>
<path fill-rule="evenodd" clip-rule="evenodd" d="M125 20C127.761 20 130 22.2386 130 25C130 30.3043 132.107 35.3914 135.858 39.1421C139.609 42.8929 144.696 45 150 45C152.761 45 155 47.2386 155 50C155 52.7614 152.761 55 150 55C142.044 55 134.413 51.8393 128.787 46.2132C123.161 40.5871 120 32.9565 120 25C120 22.2386 122.239 20 125 20Z" fill="#CBC7B8"/>
<path fill-rule="evenodd" clip-rule="evenodd" d="M35 20C37.7614 20 40 22.2386 40 25C40 28.9397 39.224 32.8407 37.7164 36.4805C36.2087 40.1203 33.999 43.4274 31.2132 46.2132C28.4274 48.999 25.1203 51.2087 21.4805 52.7164C17.8407 54.224 13.9397 55 10 55C7.23858 55 5 52.7614 5 50C5 47.2386 7.23858 45 10 45C12.6264 45 15.2272 44.4827 17.6537 43.4776C20.0802 42.4725 22.285 40.9993 24.1421 39.1421C25.9993 37.285 27.4725 35.0802 28.4776 32.6537C29.4827 30.2272 30 27.6264 30 25C30 22.2386 32.2386 20 35 20Z" fill="#CBC7B8"/>
<path fill-rule="evenodd" clip-rule="evenodd" d="M128.787 83.7868C134.413 78.1607 142.044 75 150 75C152.761 75 155 77.2386 155 80C155 82.7614 152.761 85 150 85C144.696 85 139.609 87.1071 135.858 90.8579C132.107 94.6086 130 99.6957 130 105C130 107.761 127.761 110 125 110C122.239 110 120 107.761 120 105C120 97.0435 123.161 89.4129 128.787 83.7868Z" fill="#CBC7B8"/>
<path fill-rule="evenodd" clip-rule="evenodd" d="M5 80C5 77.2386 7.23858 75 10 75C13.9397 75 17.8407 75.776 21.4805 77.2836C25.1203 78.7913 28.4274 81.001 31.2132 83.7868C33.999 86.5726 36.2087 89.8797 37.7164 93.5195C39.224 97.1593 40 101.06 40 105C40 107.761 37.7614 110 35 110C32.2386 110 30 107.761 30 105C30 102.374 29.4827 99.7728 28.4776 97.3463C27.4725 94.9198 25.9993 92.715 24.1421 90.8579C22.285 89.0007 20.0802 87.5275 17.6537 86.5224C15.2272 85.5173 12.6264 85 10 85C7.23858 85 5 82.7614 5 80Z" fill="#CBC7B8"/>
</svg>
