<svg width="160" height="160" viewBox="0 0 160 160" fill="none" xmlns="http://www.w3.org/2000/svg">
<path fill-rule="evenodd" clip-rule="evenodd" d="M15 80C15 44.1136 44.1136 15 80 15C115.886 15 145 44.1136 145 80C145 115.886 115.886 145 80 145C44.1136 145 15 115.886 15 80ZM80 25C49.6364 25 25 49.6364 25 80C25 110.364 49.6364 135 80 135C110.364 135 135 110.364 135 80C135 49.6364 110.364 25 80 25Z" fill="#CBC7B8"/>
<path fill-rule="evenodd" clip-rule="evenodd" d="M80 35C82.7614 35 85 37.2386 85 40V80H110C112.761 80 115 82.2386 115 85C115 87.7614 112.761 90 110 90H80C77.2386 90 75 87.7614 75 85V40C75 37.2386 77.2386 35 80 35Z" fill="#CBC7B8"/>
</svg>
