<svg width="160" height="160" viewBox="0 0 160 160" fill="none" xmlns="http://www.w3.org/2000/svg">
<path d="M30.0872 150.068C29.6778 150.068 29.2684 150.068 28.8559 150.03C24.8992 149.793 21.1014 148.39 17.9421 145.996C14.7829 143.602 12.404 140.325 11.1059 136.58C9.80775 132.835 9.64868 128.789 10.6487 124.953C11.6488 121.118 13.7631 117.665 16.7247 115.03L68.7653 67.5239C69.4381 66.9013 69.9254 66.1046 70.1731 65.222C70.4208 64.3395 70.4191 63.4056 70.1684 62.5239C65.5215 45.9926 68.3965 31.0114 78.059 21.4207C89.2247 10.3301 107.047 6.87386 121.384 13.0145C122.358 13.4318 123.185 14.131 123.759 15.0219C124.332 15.9129 124.626 16.9551 124.603 18.0145C124.583 19.3968 124.022 20.7164 123.04 21.6895L104.25 40.4614C103.316 41.404 102.793 42.677 102.793 44.0035C102.793 45.3301 103.316 46.6031 104.25 47.5457L112.543 55.8395C113.486 56.7683 114.756 57.289 116.079 57.289C117.403 57.289 118.673 56.7683 119.615 55.8395L138.503 36.9364C139.098 36.3408 139.826 35.8952 140.627 35.6362C141.428 35.3773 142.279 35.3124 143.11 35.447C143.941 35.5816 144.729 35.9118 145.407 36.4103C146.085 36.9089 146.636 37.5615 147.012 38.3145L147.037 38.3645C149.934 44.302 150.787 52.3301 149.409 60.3457C147.934 68.852 144.097 76.5082 138.628 81.9082C129.118 91.2832 114.3 94.1707 97.9747 89.7989C97.1032 89.567 96.185 89.5772 95.3188 89.8283C94.4527 90.0794 93.6714 90.5619 93.059 91.2239L45.0309 143.355C43.1515 145.461 40.8493 147.147 38.2744 148.304C35.6995 149.461 32.9098 150.061 30.0872 150.068ZM106.434 20.0239C98.6028 20.0239 90.6278 23.027 85.0903 28.527C75.134 38.4051 78.059 53.7051 79.7778 59.8239C80.5311 62.4801 80.5326 65.2932 79.7823 67.9502C79.032 70.6072 77.5592 73.004 75.5278 74.8739L75.5028 74.8957L23.3903 122.499C22.4023 123.375 21.5965 124.436 21.0188 125.624C20.4412 126.811 20.103 128.1 20.0236 129.418C19.9443 130.736 20.1253 132.056 20.5563 133.304C20.9873 134.552 21.6598 135.703 22.5356 136.691C23.4113 137.679 24.4731 138.485 25.6603 139.063C26.8475 139.64 28.1368 139.978 29.4547 140.058C30.7725 140.137 32.0931 139.956 33.3411 139.525C34.589 139.094 35.7398 138.421 36.7278 137.546C37.0299 137.279 37.3148 136.993 37.5809 136.689L37.6465 136.621L85.7278 84.4332C87.5755 82.4351 89.9334 80.9791 92.5474 80.2219C95.1615 79.4647 97.9326 79.4351 100.562 80.1364C106.631 81.7614 121.787 84.4895 131.615 74.7864C138.097 68.4051 140.75 57.952 139.9 49.702L126.681 62.9301C123.861 65.7201 120.054 67.2851 116.087 67.2851C112.12 67.2851 108.313 65.7201 105.493 62.9301L97.1778 54.6176C94.3828 51.7964 92.8148 47.9858 92.8148 44.0145C92.8148 40.0432 94.3828 36.2326 97.1778 33.4114L110.303 20.2864C109.02 20.1153 107.728 20.0276 106.434 20.0239ZM145.597 43.9895L145.581 44.0082L145.597 43.9895Z" fill="#CBC7B8"/>
<path d="M30 135C32.7614 135 35 132.761 35 130C35 127.239 32.7614 125 30 125C27.2386 125 25 127.239 25 130C25 132.761 27.2386 135 30 135Z" fill="#CBC7B8"/>
</svg>
