<svg width="130" height="113" viewBox="0 0 130 113" fill="none" xmlns="http://www.w3.org/2000/svg">
<path d="M11.3541 83.4219V110.461H116.865V90.4756L67.1954 37.5732" stroke="#665C40" stroke-width="5"/>
<path d="M4.30042 87.8302L40.1564 52.2681" stroke="#665C40" stroke-width="5"/>
<path d="M116.571 89.8875C121.861 90.1814 130.972 88.2417 125.094 78.1314L75.4247 29.3438" stroke="#665C40" stroke-width="5"/>
<path d="M76.3063 25.5231L61.9051 39.6304C52.03 35.6334 52.5003 43.4512 53.9698 47.8597C48.7971 54.4431 45.5446 54.3255 44.5649 53.4438C41.234 50.5048 34.3959 44.3329 33.6906 43.1572C32.9852 41.9816 33.3967 40.3162 33.6906 39.6304L38.9808 32.2829C48.3856 35.5746 48.7775 28.1683 47.7978 24.0536L63.6685 8.47684C76.8353 -2.10363 93.8425 5.04798 100.7 9.94635L98.349 12.8854L95.7038 11.7098C75.0131 6.30197 74.151 18.6654 76.3063 25.5231Z" fill="#D4D6D2" stroke="#665C40" stroke-width="5"/>
<path d="M41.332 51.0928L38.9808 53.444" stroke="#665C40" stroke-width="5"/>
<path d="M17.2321 53.1499V72.8413L29.2821 62.5548V53.1499H17.2321Z" fill="#665C40" stroke="#665C40" stroke-width="5"/>
<path d="M21.0577 58.9658C21.0017 59.7344 20.8911 60.4732 20.7174 61.2202C20.6521 61.5011 20.4787 61.7452 20.4014 62.0284" stroke="#665C40" stroke-width="11" stroke-linecap="round"/>
<path d="M21.312 57C21.2118 57.0106 21 57.2464 21 57.3535C21 57.833 23.3395 57.1129 23.7414 57.0969C23.8805 57.0913 25.8143 57.0196 25.8143 57.3404C25.8143 57.7549 25.8252 58.0847 25.6112 58.4403C25.315 58.9326 24.0919 60.3267 25.2991 60.4777C25.4621 60.4981 26.0857 60.3436 25.9901 60.6977C25.9712 60.7676 25.8624 60.8195 25.8143 60.8653C25.6907 60.9829 25.5561 61.077 25.4304 61.1926C25.126 61.4726 24.8337 61.7988 24.5116 62.0542C24.0584 62.4137 23.7207 62.9377 23.3625 63.395C23.1623 63.6507 23.0058 63.9504 22.8078 64.2121C22.5203 64.5921 22.2176 64.9574 21.9708 65.3696C21.8138 65.6317 21.6967 65.9028 21.5572 66.1683C21.4618 66.3499 21.3965 66.6001 21.2576 66.747C21.2282 66.778 21.1337 67.0457 21.1337 66.9932" stroke="#665C40" stroke-width="11" stroke-linecap="round"/>
<path d="M11.3541 83.7158V81.9524V80.189" stroke="#665C40" stroke-width="5"/>
<path d="M4.88818 87.2427C3.41868 88.7122 0.89112 91.2397 2.53697 89.5939" stroke="#665C40" stroke-width="5"/>
<circle cx="63.0808" cy="26.4048" r="3.23292" fill="#665C40"/>
<rect x="52.2064" y="81.9521" width="8.81705" height="8.81705" rx="4.40853" fill="#665C40"/>
<rect x="62.7869" y="81.9521" width="8.81705" height="8.81705" rx="4.40853" fill="#665C40"/>
<rect x="52.2064" y="70.7842" width="8.81705" height="8.81705" rx="4.40853" fill="#665C40"/>
<rect x="62.7869" y="70.7842" width="8.81705" height="8.81705" rx="4.40853" fill="#665C40"/>
</svg>
